<?xml version="1.0" encoding="iso-8859-1"?>
<!-- Generator: Adobe Illustrator 19.0.0, SVG Export Plug-In . SVG Version: 6.00 Build 0)  -->
<svg xmlns="http://www.w3.org/2000/svg" xmlns:xlink="http://www.w3.org/1999/xlink" version="1.1" id="Layer_1" x="0px" y="0px" viewBox="0 0 512 512" style="enable-background:new 0 0 512 512;" xml:space="preserve" width="512" height="512">
<g>
	<g>
		<circle style="fill:#485877;" cx="256" cy="184.293" r="176.793"/>
		<path style="fill:#334060;" d="M109.207,184.293C109.207,91.706,180.382,15.754,271,8.14c-4.946-0.416-9.947-0.64-15-0.64    c-97.64,0-176.793,79.153-176.793,176.793S158.36,361.086,256,361.086c5.053,0,10.054-0.224,15-0.64    C180.382,352.831,109.207,276.879,109.207,184.293z"/>
		<circle style="fill:#FD6F71;" cx="256" cy="184.293" r="99.559"/>
		<circle style="fill:#485877;" cx="256" cy="184.293" r="34.975"/>
		<path style="fill:#FADC60;" d="M434.263,184.293H77.738c-18.236,0-33.019,14.783-33.019,33.019v254.169    c0,18.236,14.783,33.019,33.019,33.019h356.525c18.236,0,33.019-14.783,33.019-33.019V217.312    C467.281,199.076,452.498,184.293,434.263,184.293z"/>
		<path style="fill:#E6CB59;" d="M84.719,471.481V217.312c0-18.236,14.783-33.019,33.019-33.019h-40    c-18.236,0-33.019,14.783-33.019,33.019v254.169c0,18.236,14.783,33.019,33.019,33.019h40    C99.502,504.5,84.719,489.717,84.719,471.481z"/>
	</g>
	<g>
		<path d="M154.813,356.166c4.142,0,7.5-3.358,7.5-7.5v-18.313c0-4.142-3.358-7.5-7.5-7.5s-7.5,3.358-7.5,7.5v18.313    C147.313,352.808,150.671,356.166,154.813,356.166z"/>
		<path d="M357.187,356.166c4.142,0,7.5-3.358,7.5-7.5v-18.313c0-4.142-3.358-7.5-7.5-7.5s-7.5,3.358-7.5,7.5v18.313    C349.687,352.808,353.044,356.166,357.187,356.166z"/>
		<path d="M256,365.94c11.897,0,23.058-4.962,30.621-13.613c2.727-3.118,2.408-7.856-0.71-10.583    c-3.118-2.726-7.857-2.409-10.583,0.71c-4.714,5.393-11.759,8.485-19.328,8.485c-7.569,0-14.614-3.093-19.328-8.485    c-2.726-3.119-7.464-3.437-10.583-0.711c-3.119,2.727-3.437,7.464-0.711,10.583C232.941,360.979,244.103,365.94,256,365.94z"/>
		<path d="M77.737,512h356.525c22.342,0,40.519-18.177,40.519-40.519v-254.17c0-20.344-15.073-37.229-34.637-40.086    C436.415,78.87,355.252,0,256,0c-41.824,0-81.254,13.661-114.028,39.507c-3.252,2.565-3.81,7.281-1.245,10.533    c2.565,3.253,7.281,3.81,10.533,1.245C181.361,27.547,217.58,15,256,15c90.836,0,165.192,71.91,169.129,161.793h-62.335    c-0.933-13.642-4.413-26.774-10.4-39.129c-1.807-3.728-6.292-5.285-10.02-3.479c-3.728,1.807-5.285,6.292-3.479,10.02    c4.991,10.3,7.963,21.231,8.868,32.588h-49.964c-3.554-19.854-20.938-34.975-41.799-34.975s-38.245,15.121-41.799,34.975h-49.957    c3.829-47.267,43.52-84.559,91.756-84.559c25.575,0,49.341,10.244,66.919,28.846c2.845,3.01,7.592,3.145,10.603,0.3    c3.01-2.845,3.145-7.592,0.3-10.603c-20.44-21.63-48.078-33.543-77.821-33.543c-56.511,0-102.929,44.013-106.792,99.559H86.872    c1.729-39.244,16.988-76.591,43.407-105.869c2.775-3.075,2.531-7.817-0.544-10.593c-3.076-2.775-7.817-2.531-10.593,0.544    c-29.008,32.147-45.646,73.227-47.289,116.351c-19.562,2.859-34.634,19.743-34.634,40.086v254.17    C37.219,493.823,55.396,512,77.737,512z M256,156.818c12.551,0,23.163,8.459,26.435,19.975h-52.87    C232.837,165.277,243.449,156.818,256,156.818z M52.219,217.312c0-14.071,11.448-25.519,25.519-25.519h356.525    c14.071,0,25.519,11.448,25.519,25.519v254.17c0,14.071-11.448,25.519-25.519,25.519H77.737    c-14.071,0-25.519-11.448-25.519-25.519V217.312z"/>
	</g>
</g>















</svg>
